<?xml version="1.0" encoding="UTF-8" standalone="no"?>
<!-- Created with Inkscape (http://www.inkscape.org/) -->

<svg
   xmlns:dc="http://purl.org/dc/elements/1.1/"
   xmlns:cc="http://creativecommons.org/ns#"
   xmlns:rdf="http://www.w3.org/1999/02/22-rdf-syntax-ns#"
   xmlns:svg="http://www.w3.org/2000/svg"
   xmlns="http://www.w3.org/2000/svg"
   xmlns:xlink="http://www.w3.org/1999/xlink"
   xmlns:sodipodi="http://sodipodi.sourceforge.net/DTD/sodipodi-0.dtd"
   xmlns:inkscape="http://www.inkscape.org/namespaces/inkscape"
   width="64"
   height="64"
   id="svg2424"
   sodipodi:version="0.32"
   inkscape:version="0.92.2 2405546, 2018-03-11"
   version="1.0"
   sodipodi:docname="cpu.svg"
   inkscape:output_extension="org.inkscape.output.svg.inkscape"
   inkscape:export-filename="/home/thayer/archlinux-logo-contest/archer-full-detail.png"
   inkscape:export-xdpi="90"
   inkscape:export-ydpi="90">
  <defs
     id="defs2426">
    <linearGradient
       gradientUnits="userSpaceOnUse"
       id="path1082_2_"
       y2="129.3468"
       x2="112.49853"
       y1="6.1372099"
       x1="112.49854"
       gradientTransform="translate(287,-83)">
      <stop
         id="stop193"
         offset="0"
         style="stop-color:#ffffff;stop-opacity:0" />
      <stop
         id="stop195"
         offset="1"
         style="stop-color:#ffffff;stop-opacity:0.27450982;" />
      <midPointStop
         id="midPointStop197"
         style="stop-color:#FFFFFF"
         offset="0" />
      <midPointStop
         id="midPointStop199"
         style="stop-color:#FFFFFF"
         offset="0.5" />
      <midPointStop
         id="midPointStop201"
         style="stop-color:#000000"
         offset="1" />
    </linearGradient>
    <linearGradient
       id="linearGradient3388">
      <stop
         style="stop-color:#000000;stop-opacity:0;"
         offset="0"
         id="stop3390" />
      <stop
         style="stop-color:#000000;stop-opacity:0.37113401;"
         offset="1"
         id="stop3392" />
    </linearGradient>
    <linearGradient
       inkscape:collect="always"
       id="linearGradient4346">
      <stop
         style="stop-color:#00bdec;stop-opacity:1"
         offset="0"
         id="stop4348" />
      <stop
         style="stop-color:#40bfde;stop-opacity:1"
         offset="1"
         id="stop4350" />
    </linearGradient>
    <linearGradient
       inkscape:collect="always"
       xlink:href="#linearGradient4346"
       id="linearGradient4352"
       x1="400.6142"
       y1="634.15063"
       x2="616.48553"
       y2="666.97791"
       gradientUnits="userSpaceOnUse" />
    <linearGradient
       inkscape:collect="always"
       id="linearGradient5323">
      <stop
         style="stop-color:#6e6e6e;stop-opacity:1"
         offset="0"
         id="stop5325" />
      <stop
         style="stop-color:#4d4d4d;stop-opacity:1"
         offset="1"
         id="stop5327" />
    </linearGradient>
    <linearGradient
       inkscape:collect="always"
       xlink:href="#linearGradient5323"
       id="linearGradient5329"
       x1="291.83591"
       y1="238.08237"
       x2="650.81366"
       y2="348.96875"
       gradientUnits="userSpaceOnUse" />
    <linearGradient
       inkscape:collect="always"
       xlink:href="#path1082_2_"
       id="linearGradient2216"
       gradientUnits="userSpaceOnUse"
       gradientTransform="matrix(-0.3937741,0,0,0.393752,978.34967,416.9815)"
       x1="541.33502"
       y1="104.50665"
       x2="606.91248"
       y2="303.14029" />
  </defs>
  <sodipodi:namedview
     id="base"
     pagecolor="#ffffff"
     bordercolor="#666666"
     borderopacity="1.0"
     gridtolerance="10000"
     guidetolerance="10"
     objecttolerance="10"
     inkscape:pageopacity="0.0"
     inkscape:pageshadow="2"
     inkscape:zoom="10.593004"
     inkscape:cx="31.999995"
     inkscape:cy="32.000006"
     inkscape:document-units="px"
     inkscape:current-layer="g2210"
     inkscape:window-width="1920"
     inkscape:window-height="1001"
     inkscape:window-x="0"
     inkscape:window-y="36"
     showgrid="false"
     inkscape:window-maximized="1"
     showguides="true"
     inkscape:guide-bbox="true">
    <sodipodi:guide
       position="-9.1314141,0"
       orientation="0,1"
       id="guide1583"
       inkscape:locked="false" />
    <sodipodi:guide
       position="-20.025031,64.080099"
       orientation="0,1"
       id="guide1585"
       inkscape:locked="false" />
    <sodipodi:guide
       position="-36.507967,16"
       orientation="0,1"
       id="guide858"
       inkscape:locked="false"
       inkscape:label=""
       inkscape:color="rgb(0,0,255)" />
    <sodipodi:guide
       position="-10.397418,2"
       orientation="0,1"
       id="guide878"
       inkscape:locked="false"
       inkscape:label=""
       inkscape:color="rgb(0,0,255)" />
    <sodipodi:guide
       position="-10.901535,28"
       orientation="0,1"
       id="guide880"
       inkscape:locked="false"
       inkscape:label=""
       inkscape:color="rgb(0,0,255)" />
    <sodipodi:guide
       position="-12.665945,4"
       orientation="0,1"
       id="guide882"
       inkscape:locked="false"
       inkscape:label=""
       inkscape:color="rgb(0,0,255)" />
    <sodipodi:guide
       position="6,-7.8768316"
       orientation="1,0"
       id="guide884"
       inkscape:locked="false"
       inkscape:label=""
       inkscape:color="rgb(0,0,255)" />
    <sodipodi:guide
       position="26,-1.449337"
       orientation="1,0"
       id="guide886"
       inkscape:locked="false"
       inkscape:label=""
       inkscape:color="rgb(0,0,255)" />
    <sodipodi:guide
       position="-5.986392,30"
       orientation="0,1"
       id="guide888"
       inkscape:locked="false"
       inkscape:label=""
       inkscape:color="rgb(0,0,255)" />
    <sodipodi:guide
       position="11,35.729308"
       orientation="1,0"
       id="guide890"
       inkscape:locked="false"
       inkscape:label=""
       inkscape:color="rgb(0,0,255)" />
    <sodipodi:guide
       position="21,13.67418"
       orientation="1,0"
       id="guide892"
       inkscape:locked="false"
       inkscape:label=""
       inkscape:color="rgb(0,0,255)" />
    <sodipodi:guide
       position="19,-9.3891833"
       orientation="1,0"
       id="guide894"
       inkscape:locked="false"
       inkscape:label=""
       inkscape:color="rgb(0,0,255)" />
    <sodipodi:guide
       position="13,-6.4274946"
       orientation="1,0"
       id="guide896"
       inkscape:locked="false"
       inkscape:label=""
       inkscape:color="rgb(0,0,255)" />
    <sodipodi:guide
       position="-5.6083041,26"
       orientation="0,1"
       id="guide898"
       inkscape:locked="false"
       inkscape:label=""
       inkscape:color="rgb(0,0,255)" />
    <sodipodi:guide
       position="-4.2219817,24"
       orientation="0,1"
       id="guide900"
       inkscape:locked="false"
       inkscape:label=""
       inkscape:color="rgb(0,0,255)" />
    <sodipodi:guide
       position="8,-8.8850661"
       orientation="1,0"
       id="guide902"
       inkscape:locked="false"
       inkscape:label=""
       inkscape:color="rgb(0,0,255)" />
    <sodipodi:guide
       position="24,-5.6713188"
       orientation="1,0"
       id="guide904"
       inkscape:locked="false"
       inkscape:label=""
       inkscape:color="rgb(0,0,255)" />
    <sodipodi:guide
       position="206.18617,22"
       orientation="0,1"
       id="guide998"
       inkscape:locked="false"
       inkscape:label=""
       inkscape:color="rgb(0,0,255)" />
    <sodipodi:guide
       position="207.57814,10"
       orientation="0,1"
       id="guide1057"
       inkscape:locked="false"
       inkscape:label=""
       inkscape:color="rgb(0,0,255)" />
    <sodipodi:guide
       position="0,54.808341"
       orientation="1,0"
       id="guide1005"
       inkscape:locked="false"
       inkscape:label=""
       inkscape:color="rgb(0,0,255)" />
  </sodipodi:namedview>
  <metadata
     id="metadata2429">
    <rdf:RDF>
      <cc:Work
         rdf:about="">
        <dc:format>image/svg+xml</dc:format>
        <dc:type
           rdf:resource="http://purl.org/dc/dcmitype/StillImage" />
        <dc:title></dc:title>
      </cc:Work>
    </rdf:RDF>
  </metadata>
  <g
     inkscape:label="Layer 1"
     inkscape:groupmode="layer"
     id="layer1"
     transform="translate(-269.51781,-265.60124)">
    <g
       id="g2424"
       transform="matrix(1.3473684,0,0,1.3473684,-632.88236,-513.34366)">
      <g
         id="g2210"
         transform="matrix(0.25,0,0,0.25,502.3126,469.21738)">
        <path
           style="fill:#ececec;fill-opacity:1;stroke-width:0.60321623"
           d="m 722.03622,606.59331 c -2.68356,-1.63612 -3.7338,-4.42594 -3.7338,-9.91824 v -4.5435 h -5.48928 c -5.4384,0 -5.50826,-0.018 -7.5402,-2.05094 l -2.05094,-2.0509 v -9.35196 -9.35194 l -5.7199,-0.20902 c -5.4806,-0.20032 -5.79884,-0.28802 -7.60604,-2.09612 -3.4152,-3.41694 -2.91912,-9.50068 0.98318,-12.05756 0.98828,-0.64756 3.36908,-1.09306 6.92446,-1.2958 l 5.4183,-0.30892 v -3.45198 -3.45194 l -5.4183,-0.30896 c -3.55538,-0.2027 -5.93618,-0.64822 -6.92446,-1.29576 -3.9023,-2.5569 -4.39838,-8.64064 -0.98318,-12.05756 1.8072,-1.80812 2.12544,-1.89582 7.60604,-2.09612 l 5.7199,-0.20902 v -3.86266 -3.8627 h -5.18506 c -5.9512,0 -8.12086,-0.90228 -9.58398,-3.98556 -1.14154,-2.4056 -1.15948,-4.51524 -0.0608,-7.14476 1.20016,-2.8724 2.88776,-3.605 9.0993,-3.95006 l 5.42896,-0.30162 0.1796,-3.77012 0.1796,-3.7701 h -4.57226 c -5.52256,0 -8.30806,-1.04556 -9.94702,-3.7338 -2.42226,-3.97296 -0.8194,-9.36174 3.29606,-11.08128 1.1848,-0.49504 4.03252,-0.86854 6.62218,-0.86854 h 4.5435 v -5.48926 c 0,-5.43842 0.018,-5.50828 2.05092,-7.54022 l 2.05094,-2.05092 h 9.35194 9.35194 l 0.20904,-5.71992 c 0.2003,-5.4806 0.288,-5.79882 2.0961,-7.60602 3.41694,-3.4152 9.50068,-2.91912 12.05756,0.9832 0.64756,0.98828 1.09306,3.36906 1.29578,6.92442 l 0.30894,5.41832 h 3.45196 3.45196 l 0.30894,-5.41832 c 0.20272,-3.55536 0.64824,-5.93614 1.29578,-6.92442 2.5569,-3.90232 8.64064,-4.3984 12.05756,-0.9832 1.80812,1.8072 1.89582,2.12542 2.09612,7.60602 l 0.20904,5.71992 h 3.86266 3.86268 v -5.18506 c 0,-5.95122 0.90226,-8.12088 3.98556,-9.584 2.4056,-1.14152 4.51524,-1.15948 7.14476,-0.0608 2.8724,1.20016 3.60498,2.88774 3.95008,9.09932 l 0.3016,5.42894 3.7701,0.1796 3.7701,0.1796 v -4.5723 c 0,-5.52258 1.0456,-8.30804 3.73382,-9.947 3.97298,-2.42226 9.36174,-0.8194 11.0813,3.29606 0.49502,1.18478 0.86852,4.0325 0.86852,6.62216 v 4.5435 h 5.48926 c 5.43842,0 5.50828,0.018 7.54022,2.05094 l 2.05092,2.05094 v 9.35194 9.35194 l 5.71992,0.20904 c 5.4806,0.20028 5.79884,0.28798 7.60608,2.0961 3.41512,3.41694 2.91912,9.50068 -0.98328,12.05758 -0.98824,0.64752 -3.36902,1.09306 -6.92438,1.29576 l -5.41834,0.30896 v 3.45194 3.45196 l 5.41834,0.30894 c 6.23964,0.35578 8.08862,1.24556 9.47298,4.55868 1.3168,3.15166 0.71126,6.51688 -1.58648,8.81576 -1.78216,1.78306 -2.11914,1.87526 -7.58492,2.075 l -5.71992,0.20904 v 3.86268 3.86266 h 5.1851 c 5.9512,0 8.12084,0.90228 9.58396,3.98558 1.14156,2.4056 1.1595,4.51526 0.0612,7.14476 -1.20012,2.8724 -2.88772,3.605 -9.09928,3.95008 l -5.42896,0.30162 -0.1796,3.77008 -0.1796,3.7701 h 4.57228 c 5.52254,0 8.30806,1.04558 9.94702,3.7338 2.42222,3.973 0.81938,9.36176 -3.29608,11.0813 -1.1848,0.49504 -4.03252,0.86852 -6.62216,0.86852 h -4.5435 v 5.48928 c 0,5.4384 -0.02,5.50826 -2.05094,7.5402 l -2.05092,2.05094 h -9.35196 -9.35194 l -0.20904,5.71992 c -0.1998,5.46576 -0.29194,5.80276 -2.07502,7.58492 -2.29888,2.2977 -5.6641,2.90328 -8.81576,1.58644 -3.3131,-1.3843 -4.2029,-3.2333 -4.55868,-9.47298 l -0.30892,-5.4183 h -3.45196 -3.45198 l -0.30892,5.4183 c -0.20272,3.55538 -0.64824,5.93618 -1.29578,6.92446 -2.55692,3.9023 -8.64064,4.39836 -12.05756,0.98318 -1.80812,-1.80722 -1.89582,-2.12544 -2.0961,-7.60602 l -0.20904,-5.71992 h -3.86268 -3.86268 v 5.18506 c 0,5.9512 -0.90226,8.12086 -3.98558,9.58398 -2.40558,1.14152 -4.51524,1.1595 -7.14474,0.0608 -2.87238,-1.20016 -3.605,-2.88774 -3.95008,-9.0993 l -0.3016,-5.42894 -3.7701,-0.1796 -3.77012,-0.1796 v 4.57226 c 0,2.6147 -0.37184,5.46224 -0.86852,6.65096 -1.05662,2.52886 -4.1228,4.51344 -6.97328,4.51344 -1.1612,0 -3.0098,-0.54782 -4.10802,-1.21738 z m 89.1615,-75.9898 v -46.44764 h -46.44766 -46.44764 v 46.44764 46.44766 h 46.44764 46.44766 z m -72.68756,30.18856 c -0.66354,-0.27446 -1.88506,-1.22896 -2.71448,-2.12108 l -1.50804,-1.6221 -0.1694,-25.8842 c -0.1468,-22.40954 -0.044,-26.12658 0.76424,-27.68966 1.90826,-3.69016 1.90664,-3.68996 30.46572,-3.50332 l 25.92118,0.1694 1.97158,1.97158 1.97154,1.97156 0.1694,25.92118 c 0.1468,22.44288 0.0442,26.16342 -0.76424,27.72662 -1.8758,3.62738 -1.9743,3.63932 -29.68684,3.59728 -13.86782,-0.021 -25.75712,-0.26278 -26.42066,-0.53724 z m 41.78766,-24.60878 c 0.0912,-5.39126 -0.0414,-9.80228 -0.29474,-9.80228 -0.611,0 -19.47554,18.85104 -19.47554,19.4616 0,0.26092 4.41102,0.39984 9.80226,0.30866 l 9.80226,-0.1656 z m -20.83274,-10.85084 c 5.22912,-5.22148 9.50748,-9.70706 9.50748,-9.968 0,-0.26094 -4.41102,-0.39986 -9.80226,-0.3087 l -9.80228,0.1656 -0.1656,9.80228 c -0.0912,5.39124 0.0416,9.80224 0.29474,9.80224 0.25328,0 4.7389,-4.2721 9.96802,-9.49358 z"
           id="path4572"
           inkscape:connector-curvature="0" />
      </g>
    </g>
  </g>
</svg>
