<?xml version="1.0" encoding="UTF-8" standalone="no"?>
<!-- Created with Inkscape (http://www.inkscape.org/) -->

<svg
   xmlns:dc="http://purl.org/dc/elements/1.1/"
   xmlns:cc="http://creativecommons.org/ns#"
   xmlns:rdf="http://www.w3.org/1999/02/22-rdf-syntax-ns#"
   xmlns:svg="http://www.w3.org/2000/svg"
   xmlns="http://www.w3.org/2000/svg"
   xmlns:sodipodi="http://sodipodi.sourceforge.net/DTD/sodipodi-0.dtd"
   xmlns:inkscape="http://www.inkscape.org/namespaces/inkscape"
   width="64"
   height="64"
   viewBox="0 0 16.933333 16.933334"
   version="1.1"
   id="svg8"
   inkscape:version="0.92.2 2405546, 2018-03-11"
   sodipodi:docname="cpu.svg">
  <defs
     id="defs2" />
  <sodipodi:namedview
     id="base"
     pagecolor="#ffffff"
     bordercolor="#666666"
     borderopacity="1.0"
     inkscape:pageopacity="0.0"
     inkscape:pageshadow="2"
     inkscape:zoom="4.8969432"
     inkscape:cx="32.142857"
     inkscape:cy="17.5"
     inkscape:document-units="mm"
     inkscape:current-layer="layer1"
     showgrid="false"
     units="px"
     inkscape:window-width="1920"
     inkscape:window-height="997"
     inkscape:window-x="0"
     inkscape:window-y="32"
     inkscape:window-maximized="1" />
  <metadata
     id="metadata5">
    <rdf:RDF>
      <cc:Work
         rdf:about="">
        <dc:format>image/svg+xml</dc:format>
        <dc:type
           rdf:resource="http://purl.org/dc/dcmitype/StillImage" />
        <dc:title />
      </cc:Work>
    </rdf:RDF>
  </metadata>
  <g
     inkscape:label="Layer 1"
     inkscape:groupmode="layer"
     id="layer1"
     transform="translate(0,-280.06665)">
    <path
       id="rect879"
       style="fill:#ececec;fill-opacity:1;stroke:none;stroke-width:0.93807113;stroke-linecap:round;stroke-linejoin:round;stroke-miterlimit:4;stroke-dasharray:none;paint-order:markers stroke fill"
       d="m 10.654371,286.35005 v 4.34577 H 6.3085965 Z m -5.1593417,-3.1052 a 0.29658252,0.29658252 0 0 0 -0.2856863,0.31639 c -1.5e-6,-5e-5 -3.7e-6,0.002 0,0.002 3.52e-5,0.002 0.00108,0.005 0.0013,0.0171 4.741e-4,0.026 2.899e-4,0.0808 9.676e-4,0.1868 7.998e-4,0.12404 0.00147,0.5476 0.00226,0.85382 H 5.090738 a 0.46908242,0.46908242 0 0 0 -0.468926,0.46925 v 0.13509 c -0.2429292,6.3e-4 -0.491163,0.002 -1.1346656,0.002 a 0.29659783,0.29659783 0 1 0 0,0.59238 c 0.6423992,0 0.8902762,-6.3e-4 1.1346656,-0.002 v 1.40936 c -0.2429292,6.2e-4 -0.4911629,0.002 -1.1346656,0.002 a 0.29683574,0.29683574 0 1 0 0,0.59367 c 0.6423992,0 0.8902762,-0.002 1.1346656,-0.002 v 1.4084 c -0.2429292,6.2e-4 -0.491163,0.002 -1.1346656,0.002 a 0.29683566,0.29683566 0 0 0 0,0.59367 c 0.6423992,0 0.8902762,-6.3e-4 1.1346656,-0.002 v 1.40807 c -0.2429292,6.3e-4 -0.4911629,0.002 -1.1346656,0.002 a 0.29684,0.29684 0 1 0 0,0.59368 c 0.6423992,0 0.8902762,-0.002 1.1346656,-0.002 v 0.10439 a 0.46908242,0.46908242 0 0 0 0.468926,0.46893 h 0.105678 c 9.357e-4,0.24024 0.00194,0.48514 0.00194,1.12141 a 0.2950885,0.2950885 0 1 0 0.5897933,0 c 0,-0.63507 -6.753e-4,-0.87966 -0.00162,-1.12141 H 7.199771 c 9.356e-4,0.24024 0.00162,0.48514 0.00162,1.12141 a 0.2950885,0.2950885 0 1 0 0.5901165,0 c 0,-0.63507 -9.996e-4,-0.87966 -0.00194,-1.12141 h 1.4132417 c 9.437e-4,0.24024 0.00194,0.48514 0.00194,1.12141 a 0.2950885,0.2950885 0 1 0 0.5897935,0 c 0,-0.63507 -6.878e-4,-0.87966 -0.0016,-1.12141 h 1.4132423 c 9.59e-4,0.24024 0.0017,0.48514 0.0017,1.12141 a 0.2950885,0.2950885 0 1 0 0.590116,0 c 0,-0.63507 -10e-4,-0.87966 -0.0019,-1.12141 h 0.133778 a 0.46908242,0.46908242 0 0 0 0.468926,-0.46893 v -0.12345 c 0.30735,-6.3e-4 0.723396,-0.002 0.847687,-0.003 0.104579,-6.2e-4 0.159831,-6.2e-4 0.189379,-0.002 0.01477,-2.5e-4 0.0223,-0.002 0.02941,-0.002 0.0036,-1.4e-4 0.0071,3.3e-4 0.01228,0 0.0051,-3.4e-4 0.04137,-0.006 0.04137,-0.006 a 0.29289303,0.29289303 0 0 0 -0.06948,-0.5801 0.29289303,0.29289303 0 0 0 -0.0052,0.002 c 2.59e-4,-10e-6 -8.79e-4,-2.6e-4 -0.0049,0 a 0.29289303,0.29289303 0 0 0 -0.0049,0.002 0.29289303,0.29289303 0 0 0 -0.0097,0 c -0.02548,4.4e-4 -0.07721,6.3e-4 -0.180656,0.002 -0.122802,6.2e-4 -0.538874,6.2e-4 -0.845423,0.002 v -1.4058 c 0.307349,-4.9e-4 0.723395,-6.3e-4 0.847686,-0.002 0.104579,-6.2e-4 0.159831,-3.4e-4 0.18938,-0.002 0.01477,-2.6e-4 0.0223,-0.002 0.02941,-0.002 0.0036,-1.2e-4 0.0068,3.3e-4 0.01196,0 0.0051,-3.2e-4 0.04169,-0.006 0.04169,-0.006 a 0.29289303,0.29289303 0 0 0 -0.06948,-0.58009 0.29289303,0.29289303 0 0 0 -0.01002,0.002 c -0.0025,8e-5 -0.005,-1.5e-4 -0.01454,0 -0.02548,4.4e-4 -0.07721,0.002 -0.180655,0.003 -0.122803,6.2e-4 -0.538875,0.002 -0.845424,0.002 v -1.40614 c 0.307349,-4.7e-4 0.723395,-5.4e-4 0.847687,-0.002 0.104579,-6.2e-4 0.159831,-0.002 0.18938,-0.002 0.01477,-2.5e-4 0.0223,2.6e-4 0.02941,0 0.0036,-1.3e-4 0.0071,-6.3e-4 0.01228,-0.002 0.0051,-3.3e-4 0.04137,-0.005 0.04137,-0.005 a 0.29289303,0.29289303 0 0 0 -0.06948,-0.58042 v 3.3e-4 a 0.29289303,0.29289303 0 0 0 -0.01002,0.002 0.29289303,0.29289303 0 0 0 -0.0049,0 c -0.0032,8e-5 -0.0033,-1.1e-4 -0.0097,0 -0.02548,4.4e-4 -0.07721,6.3e-4 -0.180655,0.002 -0.122803,6.2e-4 -0.538875,6.2e-4 -0.845424,0.002 v -1.4045 c 0.307349,-4.8e-4 0.723396,-6.3e-4 0.847687,-0.002 0.104579,-6.2e-4 0.15983,-0.002 0.189379,-0.003 0.01477,-2.6e-4 0.0223,2.5e-4 0.02941,0 0.0036,-1.3e-4 0.0071,-6.3e-4 0.01228,-0.002 0.0051,-3.3e-4 0.04137,-0.005 0.04137,-0.005 a 0.29289303,0.29289303 0 0 0 -0.07456,-0.57887 c -6.6e-5,0 -0.002,-2e-5 -0.0023,0 -0.0017,5e-5 -0.0059,0.002 -0.01713,0.002 -0.02548,4.3e-4 -0.07721,6.2e-4 -0.180655,0.002 -0.122803,6.3e-4 -0.538874,0.002 -0.845424,0.002 v -0.15545 a 0.46908242,0.46908242 0 0 0 -0.468926,-0.46925 h -0.148676 c -4.4e-4,-0.30767 -7.86e-4,-0.73169 -0.0017,-0.85739 -6.88e-4,-0.10726 -0.0017,-0.1625 -0.0023,-0.19293 -2.79e-4,-0.0152 -10e-4,-0.0242 -0.0013,-0.0317 -1.44e-4,-0.003 3.83e-4,-0.006 0,-0.0122 -3.81e-4,-0.006 -0.0062,-0.0453 -0.0062,-0.0453 a 0.29658252,0.29658252 0 0 0 -0.300553,-0.23592 0.29658252,0.29658252 0 0 0 -0.285686,0.31638 c 0,-3e-5 -4e-6,0.002 0,0.002 3.5e-5,0.002 6.88e-4,0.006 9.6e-4,0.0184 4.77e-4,0.026 5.8e-4,0.0795 0.0013,0.18551 7.85e-4,0.12402 0.0012,0.5476 0.0017,0.85381 H 9.7894023 c -7.853e-4,-0.30766 -0.00112,-0.73168 -0.00192,-0.85738 -6.878e-4,-0.10726 -7.142e-4,-0.1625 -0.00128,-0.19293 -2.783e-4,-0.0152 -0.00104,-0.0241 -0.00128,-0.0317 -1.44e-4,-0.003 3.815e-4,-0.006 0,-0.0123 -3.823e-4,-0.006 -0.00744,-0.0453 -0.00744,-0.0453 a 0.29658252,0.29658252 0 0 0 -0.2992594,-0.2356 v -3.2e-4 a 0.29658252,0.29658252 0 0 0 -0.2856864,0.32124 0.29658252,0.29658252 0 0 0 0,0.003 c 8.42e-5,0.003 -1.337e-4,0.003 0,0.011 4.755e-4,0.026 0.0019,0.0798 0.00258,0.18582 7.997e-4,0.124 8.477e-4,0.54736 0.0013,0.8535 H 7.7979171 c -4.41e-4,-0.30766 -8.077e-4,-0.73169 -0.00162,-0.85739 -6.879e-4,-0.10726 -7.426e-4,-0.16251 -0.0013,-0.19293 -2.772e-4,-0.0152 -0.00101,-0.0242 -0.0013,-0.0317 -1.435e-4,-0.003 -5.944e-4,-0.006 -9.677e-4,-0.0123 -3.795e-4,-0.006 -0.00614,-0.0453 -0.00614,-0.0453 a 0.29658252,0.29658252 0 0 0 -0.3005521,-0.23591 0.29658252,0.29658252 0 0 0 -0.2847168,0.32123 0.29658252,0.29658252 0 0 0 0,0.003 c 8.42e-5,0.003 -1.422e-4,0.003 0,0.011 4.742e-4,0.026 0.0019,0.0811 0.00258,0.18712 7.926e-4,0.12401 8.477e-4,0.54736 0.0013,0.8535 H 5.8068369 c -4.411e-4,-0.30766 -8.077e-4,-0.73169 -0.00162,-0.85738 -6.88e-4,-0.10727 -0.0017,-0.16251 -0.00226,-0.19293 -2.772e-4,-0.0152 2.867e-4,-0.0241 0,-0.0317 -1.435e-4,-0.003 -9.197e-4,-0.006 -0.0013,-0.0123 -3.796e-4,-0.006 -0.00614,-0.0453 -0.00614,-0.0453 a 0.29658252,0.29658252 0 0 0 -0.3005522,-0.23559 z m 0.064958,2.31361 h 5.9008407 v 5.90084 H 5.5599874 Z"
       inkscape:connector-curvature="0" />
  </g>
</svg>
