<?xml version="1.0" encoding="UTF-8" standalone="no"?>
<!-- Created with Inkscape (http://www.inkscape.org/) -->

<svg
   xmlns:dc="http://purl.org/dc/elements/1.1/"
   xmlns:cc="http://creativecommons.org/ns#"
   xmlns:rdf="http://www.w3.org/1999/02/22-rdf-syntax-ns#"
   xmlns:svg="http://www.w3.org/2000/svg"
   xmlns="http://www.w3.org/2000/svg"
   xmlns:sodipodi="http://sodipodi.sourceforge.net/DTD/sodipodi-0.dtd"
   xmlns:inkscape="http://www.inkscape.org/namespaces/inkscape"
   width="64"
   height="64"
   viewBox="0 0 16.933333 16.933334"
   version="1.1"
   id="svg8"
   sodipodi:docname="fan.svg"
   inkscape:version="0.92.2 2405546, 2018-03-11">
  <defs
     id="defs2" />
  <sodipodi:namedview
     id="base"
     pagecolor="#ffffff"
     bordercolor="#666666"
     borderopacity="1.0"
     inkscape:pageopacity="0.0"
     inkscape:pageshadow="2"
     inkscape:zoom="8.8463869"
     inkscape:cx="31.999994"
     inkscape:cy="32.000005"
     inkscape:document-units="mm"
     inkscape:current-layer="layer1"
     showgrid="false"
     units="px"
     inkscape:window-width="1920"
     inkscape:window-height="997"
     inkscape:window-x="0"
     inkscape:window-y="32"
     inkscape:window-maximized="1" />
  <metadata
     id="metadata5">
    <rdf:RDF>
      <cc:Work
         rdf:about="">
        <dc:format>image/svg+xml</dc:format>
        <dc:type
           rdf:resource="http://purl.org/dc/dcmitype/StillImage" />
        <dc:title />
      </cc:Work>
    </rdf:RDF>
  </metadata>
  <g
     inkscape:label="Layer 1"
     inkscape:groupmode="layer"
     id="layer1"
     transform="translate(0,-280.06665)">
    <path
       style="fill:#ececec;fill-opacity:1;stroke:none;stroke-width:0.50576657;stroke-linecap:round;stroke-linejoin:round;stroke-miterlimit:4;stroke-dasharray:none;paint-order:normal"
       d="m 11.267654,283.2448 c -0.608436,0.0221 -1.206492,0.2779 -1.6454532,0.76282 -0.4776453,0.52765 -0.692427,1.39686 -0.6943522,2.1483 -9.413e-4,0.36745 0.046053,0.70768 0.2183172,0.98565 a 1.0529949,1.0498523 0 0 0 -0.1052832,-0.006 1.0529949,1.0498523 0 0 0 -0.8771445,0.47023 c -0.070875,-0.18258 -0.1764805,-0.36032 -0.3016396,-0.53643 -0.4364552,-0.61414 -1.116296,-1.20324 -1.8111292,-1.36448 -0.159825,-0.0371 -0.3192791,-0.0571 -0.4766808,-0.0607 -0.1574018,-0.004 -0.312746,0.009 -0.4644087,0.0362 -0.9099762,0.16401 -1.6774659,0.86339 -1.8821792,1.82857 -0.2729492,1.28691 0.5412471,2.57177 1.819849,2.86848 0.3457458,0.0802 0.6689431,0.0169 0.9152532,-0.12821 0.24631,-0.14509 0.4230892,-0.34941 0.5897149,-0.54806 0.3332518,-0.39729 0.6121099,-0.76713 1.08868,-0.88747 0.1647564,-0.0416 0.3122096,-0.12275 0.4217786,-0.23964 a 1.0529949,1.0498523 0 0 0 0.9779063,0.66109 1.0529949,1.0498523 0 0 0 0.1433919,-0.011 c -0.066945,0.14186 -0.089277,0.30461 -0.072019,0.47087 0.052166,0.50252 -0.1973242,0.89578 -0.4505215,1.34995 -0.1265989,0.22709 -0.2530955,0.46695 -0.3026086,0.74958 -0.049513,0.28262 5.505e-4,0.60696 0.1915122,0.90814 0.7077538,1.11626 2.1827384,1.46031 3.2834784,0.75669 1.100744,-0.70362 1.413403,-2.18789 0.705656,-3.30415 -0.383724,-0.6052 -1.161397,-1.05657 -1.879918,-1.26469 -0.261694,-0.0758 -0.516053,-0.12114 -0.7582975,-0.10109 a 1.0529949,1.0498523 0 0 0 0.1921575,-0.60424 1.0529949,1.0498523 0 0 0 -0.2422155,-0.66917 c 0.088402,-0.007 0.1774555,-0.0263 0.2638535,-0.0584 0.46007,-0.17134 0.904405,-0.0243 1.407436,0.11239 0.251515,0.0683 0.514275,0.13397 0.799635,0.11335 0.285361,-0.0206 0.58749,-0.15116 0.825149,-0.4137 0.877927,-0.96984 0.798646,-2.48768 -0.168582,-3.38586 -0.483613,-0.44909 -1.1029,-0.66052 -1.711336,-0.63848 z m 0.02454,0.62266 c 0.444456,-0.0158 0.89768,0.14189 1.258554,0.477 0.721746,0.67022 0.7769,1.78816 0.130474,2.50226 -0.143427,0.15844 -0.252253,0.19798 -0.404017,0.20895 -0.151763,0.0109 -0.353055,-0.0297 -0.589715,-0.094 -0.47332,-0.12863 -1.101182,-0.35116 -1.7917513,-0.094 -0.085244,0.0318 -0.1210203,0.0254 -0.1391934,0.0194 -0.018174,-0.006 -0.037841,-0.0176 -0.070727,-0.0685 -0.065773,-0.10169 -0.1302865,-0.35627 -0.1295047,-0.66141 0.00156,-0.6103 0.2489962,-1.41285 0.5335204,-1.72716 0.323213,-0.35706 0.757904,-0.54678 1.20236,-0.56259 z m -5.7350268,2.4044 c 0.1160464,0.003 0.2337362,0.0178 0.3520205,0.0452 0.4175998,0.0969 1.0850843,0.61587 1.4403774,1.11581 0.1776464,0.24997 0.2734261,0.49662 0.2783868,0.6162 0.00248,0.0598 -0.00787,0.079 -0.018408,0.093 -0.010542,0.014 -0.033715,0.0387 -0.1220768,0.061 -0.71472,0.18049 -1.1025955,0.72009 -1.4158328,1.09353 -0.1566186,0.18671 -0.2983127,0.33343 -0.4285607,0.41015 -0.130248,0.0767 -0.2423137,0.10633 -0.4527823,0.0575 -0.9462724,-0.21959 -1.5503737,-1.16975 -1.3476893,-2.12537 0.1773503,-0.83616 0.9022413,-1.38897 1.7145657,-1.36706 z m 4.4887458,3.14783 c 0.121706,0.005 0.274778,0.0272 0.438249,0.0746 0.581232,0.16835 1.288655,0.62708 1.523376,0.99728 0.529139,0.83455 0.295944,1.92066 -0.512851,2.43766 -0.808792,0.517 -1.8839764,0.27067 -2.4131167,-0.56388 -0.1182584,-0.18651 -0.1304985,-0.31094 -0.1036684,-0.46408 0.02683,-0.15315 0.1141111,-0.33675 0.2331732,-0.55032 0.2381241,-0.42714 0.6028269,-0.98184 0.526093,-1.72102 -0.00982,-0.0946 0.0076,-0.13018 0.017117,-0.14533 0.00951,-0.0151 0.02059,-0.0293 0.07428,-0.0465 0.026846,-0.009 0.063118,-0.0145 0.106898,-0.0174 0.032835,-0.002 0.069882,-0.003 0.1104499,-9.7e-4 z"
       id="path4768"
       inkscape:connector-curvature="0" />
  </g>
</svg>
