<?xml version="1.0" encoding="UTF-8" standalone="no"?>
<!-- Created with Inkscape (http://www.inkscape.org/) -->

<svg
   xmlns:dc="http://purl.org/dc/elements/1.1/"
   xmlns:cc="http://creativecommons.org/ns#"
   xmlns:rdf="http://www.w3.org/1999/02/22-rdf-syntax-ns#"
   xmlns:svg="http://www.w3.org/2000/svg"
   xmlns="http://www.w3.org/2000/svg"
   xmlns:sodipodi="http://sodipodi.sourceforge.net/DTD/sodipodi-0.dtd"
   xmlns:inkscape="http://www.inkscape.org/namespaces/inkscape"
   width="64"
   height="64"
   viewBox="0 0 16.933333 16.933334"
   version="1.1"
   id="svg8"
   sodipodi:docname="swap.svg"
   inkscape:version="0.92.2 2405546, 2018-03-11">
  <defs
     id="defs2" />
  <sodipodi:namedview
     id="base"
     pagecolor="#ffffff"
     bordercolor="#666666"
     borderopacity="1.0"
     inkscape:pageopacity="0.0"
     inkscape:pageshadow="2"
     inkscape:zoom="5.6"
     inkscape:cx="54.059141"
     inkscape:cy="12.563284"
     inkscape:document-units="mm"
     inkscape:current-layer="layer1"
     showgrid="false"
     units="px"
     inkscape:window-width="1910"
     inkscape:window-height="1010"
     inkscape:window-x="5"
     inkscape:window-y="40"
     inkscape:window-maximized="1" />
  <metadata
     id="metadata5">
    <rdf:RDF>
      <cc:Work
         rdf:about="">
        <dc:format>image/svg+xml</dc:format>
        <dc:type
           rdf:resource="http://purl.org/dc/dcmitype/StillImage" />
        <dc:title />
      </cc:Work>
    </rdf:RDF>
  </metadata>
  <g
     inkscape:label="Layer 1"
     inkscape:groupmode="layer"
     id="layer1"
     transform="translate(0,-280.06665)">
    <path
       style="fill:#ffffff;stroke:none;stroke-width:27.94960594;stroke-linejoin:round;stroke-miterlimit:4;stroke-dasharray:none;paint-order:markers stroke fill"
       d="M 22.625 0.08984375 L 22.625 4.9453125 L 29.410156 4.9453125 L 29.410156 0.08984375 L 22.625 0.08984375 z M 34.589844 0.08984375 L 34.589844 4.9453125 L 41.375 4.9453125 L 41.375 0.08984375 L 34.589844 0.08984375 z M 20.214844 7.2285156 L 20.214844 11.861328 L 20.214844 14.892578 L 20.214844 21.677734 L 20.214844 27.927734 L 20.214844 34.714844 L 20.214844 40.964844 L 20.214844 47.75 L 20.214844 49.984375 L 20.214844 56.587891 L 43.785156 56.587891 L 43.785156 51.033203 L 43.785156 47.75 L 43.785156 40.964844 L 43.785156 34.714844 L 43.785156 27.927734 L 43.785156 21.677734 L 43.785156 14.892578 L 43.785156 9.6289062 L 43.785156 7.2285156 L 20.214844 7.2285156 z M 10.982422 14.892578 L 10.982422 21.677734 L 17.929688 21.677734 L 17.929688 14.892578 L 10.982422 14.892578 z M 46.070312 14.892578 L 46.070312 21.677734 L 53.017578 21.677734 L 53.017578 14.892578 L 46.070312 14.892578 z M 31.931641 16.873047 C 33.272786 16.873047 34.613932 17.029306 35.955078 17.341797 C 37.296225 17.641261 38.624349 18.090474 39.939453 18.689453 L 39.939453 24.314453 C 38.702472 23.442063 37.445962 22.778001 36.169922 22.322266 C 34.89388 21.86653 33.63086 21.638672 32.380859 21.638672 C 30.98763 21.638672 29.919922 21.918616 29.177734 22.478516 C 28.435547 23.038415 28.064453 23.839196 28.064453 24.880859 C 28.064453 25.688141 28.33138 26.358707 28.865234 26.892578 C 29.412109 27.413397 30.544922 27.992825 32.263672 28.630859 L 34.744141 29.568359 C 37.08789 30.427748 38.81315 31.567065 39.919922 32.986328 C 41.026694 34.405591 41.580078 36.19596 41.580078 38.357422 C 41.580078 41.300137 40.707684 43.500641 38.962891 44.958984 C 37.231121 46.404276 34.607422 47.126953 31.091797 47.126953 C 29.646484 47.126953 28.194661 46.951156 26.736328 46.599609 C 25.291016 46.261064 23.891276 45.753262 22.537109 45.076172 L 22.537109 39.119141 C 24.073568 40.212886 25.557943 41.026676 26.990234 41.560547 C 28.435547 42.094393 29.861328 42.361328 31.267578 42.361328 C 32.686849 42.361328 33.787109 42.042306 34.568359 41.404297 C 35.349609 40.753235 35.740234 39.848307 35.740234 38.689453 C 35.740234 37.817063 35.479818 37.055333 34.958984 36.404297 C 34.438151 35.740234 33.682943 35.219397 32.693359 34.841797 L 29.861328 33.767578 C 26.957682 32.660806 24.991536 31.501951 23.962891 30.291016 C 22.934245 29.067053 22.419922 27.426438 22.419922 25.369141 C 22.419922 22.725915 23.266276 20.649097 24.958984 19.138672 C 26.651693 17.628272 28.975911 16.873047 31.931641 16.873047 z M 10.982422 27.927734 L 10.982422 34.714844 L 17.929688 34.714844 L 17.929688 27.927734 L 10.982422 27.927734 z M 46.070312 27.927734 L 46.070312 34.714844 L 53.017578 34.714844 L 53.017578 27.927734 L 46.070312 27.927734 z M 10.982422 40.964844 L 10.982422 47.75 L 17.929688 47.75 L 17.929688 40.964844 L 10.982422 40.964844 z M 46.070312 40.964844 L 46.070312 47.75 L 53.017578 47.75 L 53.017578 40.964844 L 46.070312 40.964844 z M 22.625 58.873047 L 22.625 64.089844 L 29.410156 64.089844 L 29.410156 58.873047 L 22.625 58.873047 z M 34.589844 58.873047 L 34.589844 64.089844 L 41.375 64.089844 L 41.375 58.873047 L 34.589844 58.873047 z "
       transform="matrix(0.26458333,0,0,0.26458333,0,280.06665)"
       id="rect818" />
    <g
       aria-label="S"
       style="font-style:normal;font-weight:normal;font-size:10.58333302px;line-height:1.25;font-family:sans-serif;letter-spacing:0px;word-spacing:0px;fill:#ffffff;fill-opacity:1;stroke:none;stroke-width:0.26458332"
       id="text818" />
  </g>
</svg>
