<?xml version="1.0" encoding="UTF-8" standalone="no"?>
<!-- Created with Inkscape (http://www.inkscape.org/) -->

<svg
   xmlns:dc="http://purl.org/dc/elements/1.1/"
   xmlns:cc="http://creativecommons.org/ns#"
   xmlns:rdf="http://www.w3.org/1999/02/22-rdf-syntax-ns#"
   xmlns:svg="http://www.w3.org/2000/svg"
   xmlns="http://www.w3.org/2000/svg"
   xmlns:sodipodi="http://sodipodi.sourceforge.net/DTD/sodipodi-0.dtd"
   xmlns:inkscape="http://www.inkscape.org/namespaces/inkscape"
   width="64"
   height="64"
   viewBox="0 0 16.933333 16.933334"
   version="1.1"
   id="svg8"
   sodipodi:docname="swap.svg"
   inkscape:version="0.92.2 2405546, 2018-03-11">
  <defs
     id="defs2" />
  <sodipodi:namedview
     id="base"
     pagecolor="#ffffff"
     bordercolor="#666666"
     borderopacity="1.0"
     inkscape:pageopacity="0.0"
     inkscape:pageshadow="2"
     inkscape:zoom="5.6"
     inkscape:cx="-10.055118"
     inkscape:cy="26.850391"
     inkscape:document-units="mm"
     inkscape:current-layer="layer1"
     showgrid="false"
     units="px"
     inkscape:window-width="1920"
     inkscape:window-height="997"
     inkscape:window-x="0"
     inkscape:window-y="32"
     inkscape:window-maximized="1" />
  <metadata
     id="metadata5">
    <rdf:RDF>
      <cc:Work
         rdf:about="">
        <dc:format>image/svg+xml</dc:format>
        <dc:type
           rdf:resource="http://purl.org/dc/dcmitype/StillImage" />
        <dc:title></dc:title>
      </cc:Work>
    </rdf:RDF>
  </metadata>
  <g
     inkscape:label="Layer 1"
     inkscape:groupmode="layer"
     id="layer1"
     transform="translate(0,-280.06665)">
    <path
       style="color:#000000;font-style:normal;font-variant:normal;font-weight:normal;font-stretch:normal;font-size:medium;line-height:normal;font-family:sans-serif;font-variant-ligatures:normal;font-variant-position:normal;font-variant-caps:normal;font-variant-numeric:normal;font-variant-alternates:normal;font-feature-settings:normal;text-indent:0;text-align:start;text-decoration:none;text-decoration-line:none;text-decoration-style:solid;text-decoration-color:#000000;letter-spacing:normal;word-spacing:normal;text-transform:none;writing-mode:lr-tb;direction:ltr;text-orientation:mixed;dominant-baseline:auto;baseline-shift:baseline;text-anchor:start;white-space:normal;shape-padding:0;clip-rule:nonzero;display:inline;overflow:visible;visibility:visible;opacity:1;isolation:auto;mix-blend-mode:normal;color-interpolation:sRGB;color-interpolation-filters:linearRGB;solid-color:#000000;solid-opacity:1;vector-effect:none;fill:#ececec;fill-opacity:1;fill-rule:nonzero;stroke:none;stroke-width:3.19851589;stroke-linecap:round;stroke-linejoin:round;stroke-miterlimit:4;stroke-dasharray:none;stroke-dashoffset:0;stroke-opacity:1;paint-order:normal;color-rendering:auto;image-rendering:auto;shape-rendering:auto;text-rendering:auto;enable-background:accumulate"
       d="M 34.714844 8 A 1.1495199 1.1495274 0 0 0 33.544922 9.2050781 C 33.544922 12.725897 33.550152 13.298565 33.554688 14.173828 L 29.744141 14.173828 C 29.739265 13.458023 29.734375 12.74778 29.734375 9.2050781 A 1.1495199 1.1495274 0 0 0 28.605469 8.0019531 A 1.1495199 1.1495274 0 0 0 27.4375 9.2050781 C 27.4375 12.725897 27.44273 13.298565 27.447266 14.173828 L 24.128906 14.173828 A 1.5994128 1.5994232 0 0 0 22.53125 15.777344 L 22.53125 19.423828 C 21.692596 19.427608 20.36182 19.4375 17.521484 19.4375 A 1.1496647 1.1496722 0 1 0 17.521484 21.734375 C 20.355088 21.734375 21.680454 21.730089 22.53125 21.71875 L 22.53125 27.763672 C 21.692596 27.767451 20.36182 27.771484 17.521484 27.771484 A 1.1496647 1.1496722 0 1 0 17.521484 30.068359 C 20.355088 30.068359 21.680454 30.064326 22.53125 30.060547 L 22.53125 35.716797 C 21.692596 35.720576 20.36182 35.732422 17.521484 35.732422 A 1.1516146 1.151622 0 1 0 17.521484 38.035156 C 20.355088 38.035156 21.680454 38.03087 22.53125 38.019531 L 22.53125 43.679688 C 21.692596 43.683467 20.36182 43.685547 17.521484 43.685547 A 1.1496647 1.1496722 0 1 0 17.521484 45.982422 C 20.355088 45.982422 21.680454 45.978389 22.53125 45.974609 L 22.53125 49.609375 A 1.5994128 1.5994232 0 0 0 24.128906 51.212891 L 27.453125 51.212891 C 27.458605 51.83141 27.462891 52.812673 27.462891 56.792969 A 1.1516009 1.1516084 0 0 0 29.765625 56.792969 C 29.765625 52.836899 29.759096 51.957117 29.751953 51.212891 L 33.560547 51.212891 C 33.566027 51.830843 33.570312 52.814172 33.570312 56.794922 A 1.1495199 1.1495274 0 1 0 35.867188 56.794922 C 35.867188 52.838664 35.861138 51.95708 35.855469 51.212891 L 39.177734 51.212891 A 1.5994128 1.5994232 0 0 0 40.775391 49.609375 L 40.775391 45.982422 C 42.540449 45.98023 44.2453 45.978578 44.841797 45.974609 C 45.240722 45.971359 45.444814 45.970968 45.560547 45.970703 C 45.618411 45.969267 45.649288 45.967061 45.681641 45.966797 C 45.697893 45.966003 45.713173 45.963155 45.740234 45.962891 C 45.753841 45.961719 45.796535 45.958984 45.796875 45.958984 C 45.797234 45.958871 45.958984 45.925781 45.958984 45.925781 A 1.1496647 1.1496722 0 0 0 45.630859 43.666016 L 45.630859 43.667969 A 1.1496647 1.1496722 0 0 0 45.521484 43.671875 C 45.514303 43.672064 45.516883 43.671648 45.507812 43.671875 C 45.414118 43.674105 45.215045 43.679941 44.822266 43.6875 C 44.235687 43.69128 42.533699 43.691533 40.775391 43.695312 L 40.775391 38.037109 C 42.540453 38.034955 44.245308 38.033076 44.841797 38.029297 C 45.240726 38.026009 45.442861 38.023184 45.558594 38.015625 C 45.616458 38.014302 45.649288 38.01725 45.681641 38.015625 C 45.697893 38.014831 45.713173 38.012021 45.740234 38.011719 C 45.753841 38.010547 45.796535 38.007812 45.796875 38.007812 C 45.797234 38.007775 45.958984 37.972656 45.958984 37.972656 A 1.1496647 1.1496722 0 0 0 45.630859 35.716797 A 1.1496647 1.1496722 0 0 0 45.521484 35.71875 C 45.514303 35.718977 45.516883 35.718523 45.507812 35.71875 C 45.414118 35.72098 45.215045 35.722278 44.822266 35.722656 C 44.235683 35.726436 42.533699 35.730469 40.775391 35.730469 L 40.775391 30.072266 C 42.540445 30.070111 44.245308 30.068422 44.841797 30.064453 C 45.240726 30.061165 45.442853 30.060849 45.558594 30.060547 C 45.616458 30.059186 45.64925 30.056943 45.681641 30.056641 C 45.697893 30.055885 45.713173 30.05906 45.740234 30.056641 C 45.753841 30.055469 45.796535 30.052734 45.796875 30.052734 C 45.797234 30.052659 45.958984 30.015625 45.958984 30.015625 A 1.1496647 1.1496722 0 0 0 45.630859 27.757812 A 1.1496647 1.1496722 0 0 0 45.572266 27.761719 C 45.574923 27.761568 45.550473 27.765625 45.521484 27.765625 C 45.514303 27.765852 45.516883 27.765436 45.507812 27.765625 C 45.414118 27.767855 45.215053 27.769153 44.822266 27.769531 C 44.235691 27.773311 42.533702 27.773564 40.775391 27.777344 L 40.775391 21.734375 C 42.540449 21.732258 44.245304 21.730342 44.841797 21.726562 C 45.240726 21.723237 45.442853 21.722921 45.558594 21.722656 C 45.616458 21.721333 45.64925 21.720715 45.681641 21.71875 C 45.697515 21.717994 45.713173 21.715108 45.740234 21.714844 C 45.753841 21.713672 45.796573 21.712891 45.796875 21.712891 C 45.797234 21.712853 45.958984 21.677734 45.958984 21.677734 A 1.1496647 1.1496722 0 0 0 45.630859 19.419922 L 45.630859 19.421875 A 1.1496647 1.1496722 0 0 0 45.541016 19.425781 C 45.536858 19.426084 45.530177 19.424723 45.521484 19.425781 A 1.1496647 1.1496722 0 0 0 45.507812 19.425781 C 45.414118 19.427936 45.215053 19.433847 44.822266 19.441406 C 44.235687 19.445186 42.533706 19.449219 40.775391 19.449219 L 40.775391 15.794922 A 1.5994128 1.5994232 0 0 0 39.177734 14.191406 L 35.851562 14.191406 C 35.846649 13.475602 35.841797 12.765359 35.841797 9.2226562 A 1.1495199 1.1495274 0 0 0 34.714844 8.0175781 L 34.714844 8 z M 25.724609 17.375 L 37.580078 17.375 L 37.580078 48.011719 L 25.724609 48.011719 L 25.724609 17.375 z M 31.443359 27.302734 C 29.815653 27.302734 28.608329 27.581232 27.820312 28.136719 C 27.032296 28.692206 26.638672 29.54363 26.638672 30.693359 C 26.638672 31.75912 26.948281 32.554934 27.568359 33.078125 C 28.188438 33.601316 29.270716 33.958569 30.814453 34.152344 L 31.423828 34.230469 C 32.127876 34.314438 32.597549 34.434824 32.830078 34.589844 C 33.069067 34.738404 33.1875 34.967304 33.1875 35.277344 C 33.1875 35.645515 33.016163 35.92206 32.673828 36.109375 C 32.331493 36.29669 31.822742 36.390625 31.144531 36.390625 C 30.39527 36.390625 29.655666 36.30661 28.925781 36.138672 C 28.202356 35.970734 27.493864 35.718688 26.802734 35.382812 L 26.802734 38.019531 C 27.610128 38.245602 28.396023 38.413632 29.158203 38.523438 C 29.926842 38.639702 30.669753 38.697266 31.386719 38.697266 C 33.079017 38.697266 34.350517 38.405543 35.203125 37.824219 C 36.055733 37.242895 36.482422 36.374938 36.482422 35.21875 C 36.482422 34.114235 36.17612 33.303842 35.5625 32.787109 C 34.94888 32.270377 33.75283 31.897945 31.976562 31.671875 L 31.367188 31.585938 C 30.74065 31.514887 30.304042 31.40442 30.058594 31.255859 C 29.819605 31.107299 29.699219 30.894931 29.699219 30.617188 C 29.699219 30.274852 29.85733 30.022807 30.173828 29.861328 C 30.496786 29.69339 30.987651 29.609375 31.646484 29.609375 C 32.260104 29.609375 32.914339 29.686777 33.605469 29.841797 C 34.296598 29.996817 35.013057 30.229023 35.755859 30.539062 L 35.755859 27.904297 C 34.929088 27.697604 34.163032 27.546106 33.458984 27.449219 C 32.754937 27.352331 32.082816 27.302734 31.443359 27.302734 z "
       transform="matrix(0.26458333,0,0,0.26458333,0,280.06665)"
       id="rect4518" />
  </g>
</svg>
