<?xml version="1.0" encoding="UTF-8" standalone="no"?>
<!-- Created with Inkscape (http://www.inkscape.org/) -->

<svg
   xmlns:dc="http://purl.org/dc/elements/1.1/"
   xmlns:cc="http://creativecommons.org/ns#"
   xmlns:rdf="http://www.w3.org/1999/02/22-rdf-syntax-ns#"
   xmlns:svg="http://www.w3.org/2000/svg"
   xmlns="http://www.w3.org/2000/svg"
   xmlns:sodipodi="http://sodipodi.sourceforge.net/DTD/sodipodi-0.dtd"
   xmlns:inkscape="http://www.inkscape.org/namespaces/inkscape"
   width="64"
   height="64"
   viewBox="0 0 16.933333 16.933334"
   version="1.1"
   id="svg8"
   sodipodi:docname="fan.svg"
   inkscape:version="0.92.2 2405546, 2018-03-11">
  <defs
     id="defs2" />
  <sodipodi:namedview
     id="base"
     pagecolor="#ffffff"
     bordercolor="#666666"
     borderopacity="1.0"
     inkscape:pageopacity="0.0"
     inkscape:pageshadow="2"
     inkscape:zoom="2.7935399"
     inkscape:cx="33.871392"
     inkscape:cy="8.6545487"
     inkscape:document-units="mm"
     inkscape:current-layer="layer1"
     showgrid="false"
     units="px"
     inkscape:window-width="1356"
     inkscape:window-height="698"
     inkscape:window-x="5"
     inkscape:window-y="40"
     inkscape:window-maximized="1" />
  <metadata
     id="metadata5">
    <rdf:RDF>
      <cc:Work
         rdf:about="">
        <dc:format>image/svg+xml</dc:format>
        <dc:type
           rdf:resource="http://purl.org/dc/dcmitype/StillImage" />
        <dc:title />
      </cc:Work>
    </rdf:RDF>
  </metadata>
  <g
     inkscape:label="Layer 1"
     inkscape:groupmode="layer"
     id="layer1"
     transform="translate(0,-280.06665)">
    <g
       id="g852">
      <path
         inkscape:transform-center-x="-1.1300869"
         inkscape:transform-center-y="0.02229063"
         inkscape:connector-curvature="0"
         id="path827"
         d="m 14.821147,287.1714 c -0.151508,-0.20225 -0.338106,-0.37834 -0.559182,-0.52759 -0.458412,-0.30946 -0.945865,-0.37233 -1.832797,-0.23595 -0.72177,0.11099 -1.820385,0.42931 -2.5089365,0.72688 l -0.1561985,0.0675 -0.080776,-0.0695 c -0.1877825,-0.162 -0.4379822,-0.29663 -0.6976026,-0.37563 -0.1369665,-0.0417 -0.2599826,-0.0777 -0.2732201,-0.0799 -0.012875,-0.003 -0.075525,-0.52977 -0.1386364,-1.17255 -0.063104,-0.64279 -0.1325928,-1.25585 -0.1543689,-1.36252 -0.1032395,-0.50606 -0.4199553,-0.99542 -0.8638879,-1.33516 -0.1432569,-0.10962 -0.2258624,-0.1535 -0.5104297,-0.26964 -0.3942139,-0.16098 -0.5923149,-0.19669 -0.9704572,-0.1754 -0.760375,0.0428 -1.396546,0.42225 -1.8366852,1.09552 -0.018745,0.0287 -0.091489,0.20089 -0.1616873,0.38294 -0.1414375,0.36677 -0.1718808,0.53839 -0.1584135,0.89045 0.012104,0.31633 0.1433808,0.64081 0.429177,1.05971 0.4748256,0.69592 1.2800086,1.51388 2.1737363,2.20879 0.099469,0.0773 0.099975,0.0789 0.082266,0.22637 -0.038721,0.3226 -0.00666,0.64078 0.094356,0.93394 l 0.041883,0.12186 -0.5784737,0.41154 c -0.9825784,0.69848 -1.3187381,0.94621 -1.4741452,1.08698 -0.4993913,0.45234 -0.7716597,1.14396 -0.7239643,1.83858 0.029268,0.42635 0.1622012,0.79357 0.4207983,1.1644 0.6286244,0.90144 1.7592272,1.22633 2.7677739,0.79552 0.4857646,-0.20749 0.7481092,-0.49719 1.0687276,-1.18007 0.2975036,-0.63365 0.6552974,-1.96095 0.7597398,-2.81843 l 0.026691,-0.21799 0.1984196,-0.0877 c 0.2334216,-0.10306 0.4027362,-0.22392 0.6100526,-0.4364 l 0.150544,-0.15467 0.1174299,0.055 c 0.997528,0.46542 1.907994,0.87291 2.128342,0.95239 0.536487,0.19346 1.036497,0.18753 1.574221,-0.0185 0.436878,-0.16735 0.762072,-0.40924 1.043813,-0.77605 0.111886,-0.14567 0.152376,-0.22266 0.273838,-0.5222 0.127116,-0.3135 0.144534,-0.3755 0.163357,-0.57497 0.04199,-0.44502 -0.02486,-0.83812 -0.21058,-1.23561 -0.06534,-0.13991 -0.143843,-0.27052 -0.234738,-0.39189 z m -5.4372186,0.77977 c 0.3285293,0.46946 0.15933,1.20205 -0.3587038,1.55275 -0.3236092,0.21908 -0.7442669,0.21951 -1.1300038,0.001 -0.3779056,-0.21356 -0.5730918,-0.58391 -0.535127,-1.01444 0.014629,-0.16589 0.1247997,-0.45893 0.2254311,-0.59964 0.1428534,-0.19976 0.3969244,-0.36835 0.6302765,-0.4188 0.4024361,-0.087 0.9208312,0.12524 1.168127,0.47872 z"
         style="fill:#ffffff;stroke-width:0.0244605" />
      <path
         inkscape:connector-curvature="0"
         id="path846"
         d="m 8.467633,280.06665 c -4.6689956,0 -8.46763320833334,3.79671 -8.46763320833334,8.4657 0,4.669 3.79863760833334,8.46763 8.46763320833334,8.46763 4.668997,0 8.465701,-3.79863 8.465701,-8.46763 0,-4.66899 -3.796704,-8.4657 -8.465701,-8.4657 z m 0,1.18674 c 4.027214,0 7.278957,3.25175 7.278957,7.27896 0,4.02722 -3.251743,7.27895 -7.278957,7.27895 -4.0272136,0 -7.2789562,-3.25173 -7.2789562,-7.27895 0,-4.02721 3.2517426,-7.27896 7.2789562,-7.27896 z"
         style="color:#000000;font-style:normal;font-variant:normal;font-weight:normal;font-stretch:normal;font-size:medium;line-height:normal;font-family:sans-serif;font-variant-ligatures:normal;font-variant-position:normal;font-variant-caps:normal;font-variant-numeric:normal;font-variant-alternates:normal;font-feature-settings:normal;text-indent:0;text-align:start;text-decoration:none;text-decoration-line:none;text-decoration-style:solid;text-decoration-color:#000000;letter-spacing:normal;word-spacing:normal;text-transform:none;writing-mode:lr-tb;direction:ltr;text-orientation:mixed;dominant-baseline:auto;baseline-shift:baseline;text-anchor:start;white-space:normal;shape-padding:0;clip-rule:nonzero;display:inline;overflow:visible;visibility:visible;opacity:1;isolation:auto;mix-blend-mode:normal;color-interpolation:sRGB;color-interpolation-filters:linearRGB;solid-color:#000000;solid-opacity:1;vector-effect:none;fill:#ffffff;fill-opacity:1;fill-rule:nonzero;stroke:none;stroke-width:1.18751752;stroke-linecap:round;stroke-linejoin:round;stroke-miterlimit:4;stroke-dasharray:none;stroke-dashoffset:0;stroke-opacity:1;paint-order:markers stroke fill;color-rendering:auto;image-rendering:auto;shape-rendering:auto;text-rendering:auto;enable-background:accumulate" />
    </g>
  </g>
</svg>
